<svg width="32" height="32" viewBox="0 0 32 32" fill="none" xmlns="http://www.w3.org/2000/svg">
<path d="M16 32C24.8366 32 32 24.8366 32 16C32 7.16344 24.8366 0 16 0C7.16344 0 0 7.16344 0 16C0 24.8366 7.16344 32 16 32Z" fill="#0E0E11"/>
<path d="M13.0718 24.44C20.1678 24.44 24.0478 18.56 24.0478 13.464C24.0478 13.296 24.0478 13.128 24.0398 12.968C24.7918 12.424 25.4478 11.744 25.9678 10.968C25.2798 11.272 24.5358 11.48 23.7518 11.576C24.5518 11.096 25.1598 10.344 25.4478 9.44C24.7038 9.88 23.8798 10.2 22.9998 10.376C22.2958 9.624 21.2958 9.16 20.1838 9.16C18.0558 9.16 16.3278 10.888 16.3278 13.016C16.3278 13.32 16.3598 13.616 16.4318 13.896C13.2238 13.736 10.3838 12.2 8.47978 9.864C8.15178 10.432 7.95978 11.096 7.95978 11.8C7.95978 13.136 8.63978 14.32 9.67978 15.008C9.04778 14.992 8.45578 14.816 7.93578 14.528C7.93578 14.544 7.93578 14.56 7.93578 14.576C7.93578 16.448 9.26378 18 11.0318 18.36C10.7118 18.448 10.3678 18.496 10.0158 18.496C9.76778 18.496 9.52778 18.472 9.28778 18.424C9.77578 19.96 11.1998 21.072 12.8878 21.104C11.5678 22.136 9.90378 22.752 8.09578 22.752C7.78378 22.752 7.47978 22.736 7.17578 22.696C8.86378 23.8 10.8958 24.44 13.0718 24.44Z" fill="white"/>
</svg>
