<svg width="32" height="32" viewBox="0 0 32 32" fill="none" xmlns="http://www.w3.org/2000/svg">
<path d="M16 32C24.8366 32 32 24.8366 32 16C32 7.16344 24.8366 0 16 0C7.16344 0 0 7.16344 0 16C0 24.8366 7.16344 32 16 32Z" fill="#0E0E11"/>
<path fill-rule="evenodd" clip-rule="evenodd" d="M7.24236 15.8311C11.9067 13.799 15.017 12.4592 16.5732 11.8119C21.0166 9.96378 21.9399 9.64273 22.5417 9.63213C22.674 9.6298 22.97 9.6626 23.1617 9.81815C23.3235 9.9495 23.3681 10.1269 23.3894 10.2515C23.4107 10.376 23.4372 10.6597 23.4161 10.8813C23.1753 13.4113 22.1335 19.5509 21.6034 22.3845C21.3791 23.5835 20.9375 23.9855 20.51 24.0249C19.5808 24.1104 18.8752 23.4108 17.9753 22.8209C16.5671 21.8978 15.7716 21.3232 14.4047 20.4224C12.825 19.3814 13.849 18.8093 14.7493 17.8742C14.9849 17.6295 19.0787 13.9058 19.158 13.568C19.1679 13.5258 19.1771 13.3683 19.0835 13.2852C18.99 13.202 18.8519 13.2304 18.7522 13.253C18.611 13.2851 16.3614 14.772 12.0034 17.7138C11.3648 18.1523 10.7864 18.3659 10.2682 18.3547C9.69694 18.3424 8.59802 18.0317 7.78109 17.7662C6.77909 17.4405 5.98272 17.2683 6.05206 16.7151C6.08818 16.427 6.48495 16.1323 7.24236 15.8311Z" fill="white"/>
</svg>
