<svg width="32" height="32" viewBox="0 0 32 32" fill="none" xmlns="http://www.w3.org/2000/svg">
<circle cx="16" cy="16" r="16" fill="#0E0E11"/>
<path fill-rule="evenodd" clip-rule="evenodd" d="M21.9766 17.7376C21.5231 17.7376 21.1603 17.3748 21.1603 16.9213C21.1603 16.4677 21.5231 16.1049 21.9766 16.1049C22.4301 16.1049 22.7929 16.4677 22.7929 16.9213C22.7929 17.3521 22.4301 17.7376 21.9766 17.7376ZM17.9533 17.7376C17.4998 17.7376 17.137 17.3748 17.137 16.9213C17.137 16.4677 17.4998 16.1049 17.9533 16.1049C18.4068 16.1049 18.7696 16.4677 18.7696 16.9213C18.7696 17.3521 18.4068 17.7376 17.9533 17.7376ZM23.9236 22.3196C25.1962 21.4035 25.9999 20.0408 25.9999 18.5438C25.9999 15.7735 23.3208 13.5393 19.9941 13.5393C16.6675 13.5393 13.9883 15.7735 13.9883 18.5438C13.9883 21.3142 16.6675 23.5484 19.9941 23.5484C20.6862 23.5484 21.3337 23.459 21.9588 23.2803C22.0035 23.2579 22.0705 23.2579 22.1374 23.2579C22.2491 23.2579 22.3608 23.3026 22.45 23.3473L23.7673 24.1069C23.812 24.1293 23.8343 24.1516 23.879 24.1516C23.9054 24.1517 23.9316 24.1465 23.956 24.1365C23.9804 24.1264 24.0026 24.1116 24.0213 24.0929C24.04 24.0742 24.0548 24.052 24.0648 24.0276C24.0749 24.0031 24.08 23.977 24.0799 23.9505C24.0799 23.9058 24.0576 23.8611 24.0576 23.7941C24.0576 23.7718 23.879 23.1685 23.7896 22.7887C23.7673 22.7441 23.7673 22.6994 23.7673 22.6547C23.745 22.4983 23.812 22.3866 23.9236 22.3196Z" fill="white"/>
<path fill-rule="evenodd" clip-rule="evenodd" d="M15.5627 13.0146C15.042 13.0146 14.6297 12.6023 14.6297 12.0816C14.6297 11.5609 15.042 11.1487 15.5627 11.1487C16.0834 11.1487 16.4956 11.5609 16.4956 12.0816C16.4956 12.5806 16.0834 13.0146 15.5627 13.0146ZM10.7813 13.0146C10.2606 13.0146 9.8484 12.6023 9.8484 12.0816C9.8484 11.5609 10.2606 11.1487 10.7813 11.1487C11.302 11.1487 11.7143 11.5609 11.7143 12.0816C11.7143 12.5806 11.302 13.0146 10.7813 13.0146ZM13.228 8C9.24466 8 6 10.6761 6 13.9988C6 15.8052 6.96222 17.4332 8.5063 18.5259C8.61819 18.6152 8.7077 18.7489 8.7077 18.9273C8.7077 18.9719 8.68531 19.0388 8.68531 19.0834C8.57341 19.5294 8.37201 20.2654 8.34962 20.2876C8.32729 20.3546 8.3049 20.3992 8.3049 20.4661C8.3049 20.5999 8.41679 20.7114 8.55102 20.7114C8.5958 20.7114 8.64053 20.6891 8.68531 20.6668L10.2741 19.7525C10.386 19.6855 10.5203 19.6409 10.6545 19.6409C10.7217 19.6409 10.7888 19.6409 10.8559 19.6633C11.5944 19.864 12.3999 19.9977 13.2056 19.9977H13.6084C13.4517 19.5294 13.3622 19.0388 13.3622 18.5259C13.3622 15.5153 16.316 13.0623 19.9412 13.0623H20.344C19.8293 10.1854 16.8307 8 13.228 8Z" fill="white"/>
</svg>
