<svg width="32" height="32" viewBox="0 0 32 32" fill="none" xmlns="http://www.w3.org/2000/svg">
<g clip-path="url(#clip0_240:5988)">
<path d="M16.001 32C19.1655 32 22.2589 31.0616 24.8901 29.3035C27.5213 27.5454 29.5721 25.0465 30.7831 22.1229C31.9941 19.1993 32.3109 15.9823 31.6936 12.8786C31.0762 9.77486 29.5523 6.92392 27.3147 4.68628C25.077 2.44864 22.2262 0.924791 19.1225 0.307427C16.0188 -0.309936 12.8017 0.00691764 9.87804 1.21792C6.95443 2.42892 4.45556 4.47967 2.69745 7.11085C0.939351 9.74204 0.000976563 12.8355 0.000976562 16C0.0070242 20.2416 1.69466 24.3077 4.69393 27.307C7.6932 30.3063 11.7593 31.9939 16.001 32ZM22.494 9.15335C24.5035 11.1625 24.3173 13.7489 22.0106 16.0556L20.0197 18.0465C20.2429 17.1907 20.0756 15.702 19.759 15.2558L20.4476 14.586C21.8616 13.1907 22.0479 11.7207 20.9684 10.6615C19.8894 9.58239 18.4753 9.7851 17.0244 11.201L15.6291 12.5776C14.1965 13.9916 14.0288 15.4243 15.1265 16.5022C15.4696 16.8183 15.8436 17.0992 16.2429 17.3404C15.9402 18.0103 15.4885 18.6022 14.922 19.0707C14.4603 18.7525 14.0247 18.3979 13.6195 18.0103C11.5544 16.0568 11.7034 13.3964 14.0662 11.0893L15.6104 9.6384C17.9351 7.36749 20.4654 7.12554 22.4933 9.15335H22.494ZM8.94976 22.8462C6.94062 20.8371 7.12656 18.2511 9.43367 15.944L11.4241 13.9535C11.2012 14.8093 11.3685 16.2976 11.6847 16.7441L10.9962 17.414C9.5822 18.8093 9.3959 20.2789 10.4753 21.3385C11.5544 22.418 12.9684 22.2149 14.4197 20.799L15.8151 19.4223C17.2477 18.0084 17.4153 16.5757 16.3172 15.4978C15.9741 15.1819 15.6002 14.9011 15.2012 14.6595C15.5038 13.9897 15.9556 13.3979 16.5219 12.9293C16.9835 13.2475 17.419 13.6021 17.8242 13.9897C19.8894 15.9432 19.7407 18.6039 17.3776 20.9106L15.8337 22.362C13.5072 24.6325 10.9772 24.8744 8.94901 22.8462H8.94976Z" fill="#0E0E11"/>
</g>
<defs>
<clipPath id="clip0_240:5988">
<rect width="32" height="32" fill="white"/>
</clipPath>
</defs>
</svg>
