<svg width="32" height="32" viewBox="0 0 32 32" fill="none" xmlns="http://www.w3.org/2000/svg"><circle cx="16" cy="16" r="16" fill="#0E0E11"/><path fill-rule="evenodd" clip-rule="evenodd" d="M21.977 17.738a.813.813 0 0 1-.817-.817c0-.453.363-.816.817-.816.453 0 .816.363.816.816 0 .431-.363.817-.816.817zm-4.024 0a.813.813 0 0 1-.816-.817c0-.453.363-.816.816-.816.454 0 .817.363.817.816 0 .431-.363.817-.817.817zm5.97 4.582C25.197 21.404 26 20.04 26 18.544c0-2.77-2.68-5.005-6.006-5.005s-6.006 2.235-6.006 5.005 2.68 5.004 6.006 5.004c.692 0 1.34-.089 1.965-.268.044-.022.111-.022.178-.022.112 0 .224.045.313.09l1.317.759c.045.022.067.045.112.045a.201.201 0 0 0 .2-.201c0-.045-.021-.09-.021-.157 0-.022-.179-.625-.268-1.005-.023-.045-.023-.09-.023-.134a.316.316 0 0 1 .157-.335z" fill="#fff"/><path fill-rule="evenodd" clip-rule="evenodd" d="M15.563 13.015a.926.926 0 0 1-.933-.933c0-.521.412-.933.933-.933.52 0 .933.412.933.933a.94.94 0 0 1-.933.933zm-4.782 0a.926.926 0 0 1-.933-.933c0-.521.413-.933.933-.933.521 0 .933.412.933.933a.94.94 0 0 1-.933.933zM13.228 8C9.245 8 6 10.676 6 13.999c0 1.806.962 3.434 2.506 4.527.112.09.202.223.202.401 0 .045-.023.112-.023.156-.112.446-.313 1.182-.335 1.205-.023.067-.045.111-.045.178 0 .134.112.245.246.245.045 0 .09-.022.134-.044l1.59-.915a.756.756 0 0 1 .38-.111c.067 0 .134 0 .2.022.74.201 1.545.335 2.35.335h.403a4.614 4.614 0 0 1-.246-1.472c0-3.01 2.954-5.464 6.58-5.464h.402C19.829 10.185 16.831 8 13.228 8z" fill="#fff"/></svg>