<svg width="32" height="32" viewBox="0 0 32 32" fill="none" xmlns="http://www.w3.org/2000/svg"><g clip-path="url(#a)"><path d="M16.001 32a16 16 0 1 0-16-16 16.023 16.023 0 0 0 16 16m6.493-22.847c2.01 2.01 1.823 4.596-.483 6.903l-1.991 1.99c.223-.855.056-2.344-.261-2.79l.689-.67c1.414-1.395 1.6-2.865.52-3.924-1.079-1.08-2.493-.877-3.944.539l-1.395 1.377c-1.432 1.414-1.6 2.846-.502 3.924q.516.475 1.116.838a4.8 4.8 0 0 1-1.321 1.73 10.5 10.5 0 0 1-1.303-1.06c-2.065-1.953-1.916-4.614.447-6.92l1.544-1.452c2.325-2.27 4.855-2.512 6.883-.485zM8.95 22.846c-2.01-2.009-1.823-4.595.484-6.902l1.99-1.99c-.223.855-.056 2.344.26 2.79l-.688.67c-1.414 1.395-1.6 2.865-.52 3.924 1.078 1.08 2.492.877 3.944-.539l1.395-1.377c1.433-1.414 1.6-2.846.502-3.924a7 7 0 0 0-1.116-.838 4.8 4.8 0 0 1 1.32-1.73q.694.478 1.303 1.06c2.065 1.953 1.917 4.614-.446 6.92l-1.544 1.452c-2.327 2.27-4.857 2.512-6.885.484" fill="#0E0E11"/></g><defs><clipPath id="a"><path fill="#fff" d="M0 0h32v32H0z"/></clipPath></defs></svg>