<svg width="32" height="32" viewBox="0 0 32 32" fill="none" xmlns="http://www.w3.org/2000/svg"><path d="M16 32c8.837 0 16-7.163 16-16S24.837 0 16 0 0 7.163 0 16s7.163 16 16 16Z" fill="#0E0E11"/><path fill-rule="evenodd" clip-rule="evenodd" d="M7.242 15.831c4.665-2.032 7.775-3.372 9.331-4.02 4.444-1.847 5.367-2.168 5.969-2.179.132-.002.428.03.62.186a.674.674 0 0 1 .227.434c.022.124.048.408.027.63-.24 2.53-1.282 8.669-1.813 11.502-.224 1.2-.666 1.601-1.093 1.64-.93.086-1.635-.613-2.535-1.203-1.408-.923-2.203-1.498-3.57-2.399-1.58-1.04-.556-1.613.344-2.548.236-.244 4.33-3.968 4.409-4.306.01-.042.02-.2-.075-.283-.093-.083-.231-.055-.33-.032-.142.032-2.392 1.519-6.75 4.46-.638.44-1.217.653-1.735.642-.571-.013-1.67-.323-2.487-.589-1.002-.325-1.798-.498-1.729-1.05.036-.289.433-.584 1.19-.885Z" fill="#fff"/></svg>