<svg width="32" height="32" viewBox="0 0 32 32" fill="none" xmlns="http://www.w3.org/2000/svg"><path d="M16 32c8.837 0 16-7.163 16-16S24.837 0 16 0 0 7.163 0 16s7.163 16 16 16" fill="#0E0E11"/><path d="M13.072 24.44c7.096 0 10.976-5.88 10.976-10.976 0-.168 0-.336-.008-.496a7.9 7.9 0 0 0 1.928-2 7.8 7.8 0 0 1-2.216.608 3.86 3.86 0 0 0 1.696-2.136c-.744.44-1.568.76-2.448.936a3.84 3.84 0 0 0-2.816-1.216 3.86 3.86 0 0 0-3.856 3.856c0 .304.032.6.104.88A10.94 10.94 0 0 1 8.48 9.864a3.87 3.87 0 0 0-.52 1.936c0 1.336.68 2.52 1.72 3.208a3.8 3.8 0 0 1-1.744-.48v.048a3.86 3.86 0 0 0 3.096 3.784 3.85 3.85 0 0 1-1.744.064 3.85 3.85 0 0 0 3.6 2.68 7.76 7.76 0 0 1-5.712 1.592 10.75 10.75 0 0 0 5.896 1.744" fill="#fff"/></svg>